<svg width="180" height="37" viewBox="0 0 180 37" fill="none" xmlns="http://www.w3.org/2000/svg">
<path d="M16 18.5H8V26.5H16V18.5Z" fill="#292929"/>
<path d="M8 10.5H0V18.5H8V10.5Z" fill="#292929"/>
<path d="M34.4881 27.3838C33.1868 27.3838 32.0988 27.1598 31.2241 26.7118C30.3494 26.2425 29.6988 25.6345 29.2721 24.8878C28.8454 24.1198 28.6321 23.2878 28.6321 22.3918C28.6321 21.3038 28.9094 20.3865 29.4641 19.6398C30.0401 18.8718 30.8401 18.2958 31.8641 17.9118C32.9094 17.5065 34.1361 17.3038 35.5441 17.3038H39.8001C39.8001 16.3011 39.6401 15.4691 39.3201 14.8078C39.0214 14.1251 38.5734 13.6131 37.9761 13.2718C37.4001 12.9305 36.6748 12.7598 35.8001 12.7598C34.7761 12.7598 33.8908 13.0158 33.1441 13.5278C32.3974 14.0398 31.9388 14.7971 31.7681 15.7998H29.0161C29.1441 14.6478 29.5281 13.6878 30.1681 12.9198C30.8294 12.1305 31.6614 11.5331 32.6641 11.1278C33.6668 10.7011 34.7121 10.4878 35.8001 10.4878C37.2934 10.4878 38.5308 10.7651 39.5121 11.3198C40.5148 11.8531 41.2614 12.6105 41.7521 13.5918C42.2428 14.5518 42.4881 15.6931 42.4881 17.0158V26.9998H40.0881L39.9281 24.1518C39.7148 24.5998 39.4374 25.0265 39.0961 25.4318C38.7761 25.8158 38.3921 26.1571 37.9441 26.4558C37.4961 26.7331 36.9841 26.9571 36.4081 27.1278C35.8534 27.2985 35.2134 27.3838 34.4881 27.3838ZM34.9041 25.1118C35.6508 25.1118 36.3228 24.9625 36.9201 24.6638C37.5388 24.3438 38.0614 23.9171 38.4881 23.3838C38.9148 22.8291 39.2348 22.2211 39.4481 21.5598C39.6828 20.8985 39.8001 20.2051 39.8001 19.4798V19.3838H35.7681C34.7228 19.3838 33.8801 19.5118 33.2401 19.7678C32.6001 20.0025 32.1414 20.3438 31.8641 20.7918C31.5868 21.2185 31.4481 21.7091 31.4481 22.2638C31.4481 22.8398 31.5761 23.3411 31.8321 23.7678C32.1094 24.1945 32.5041 24.5251 33.0161 24.7598C33.5494 24.9945 34.1788 25.1118 34.9041 25.1118ZM45.3663 26.9998V10.8718H47.7983L47.9263 13.6878C48.4383 12.6851 49.1637 11.9065 50.1023 11.3518C51.0623 10.7758 52.1503 10.4878 53.3664 10.4878C54.625 10.4878 55.713 10.7438 56.6303 11.2558C57.5477 11.7465 58.2624 12.5038 58.7744 13.5278C59.2863 14.5305 59.5423 15.8105 59.5423 17.3678V26.9998H56.8543V17.6558C56.8543 16.0345 56.4917 14.8185 55.7663 14.0078C55.0623 13.1971 54.0597 12.7918 52.7584 12.7918C51.8623 12.7918 51.0623 13.0158 50.3583 13.4638C49.6543 13.8905 49.089 14.5198 48.6623 15.3518C48.257 16.1625 48.0543 17.1758 48.0543 18.3918V26.9998H45.3663ZM68.7973 26.9998C67.8373 26.9998 67.0053 26.8505 66.3013 26.5518C65.5973 26.2531 65.0533 25.7518 64.6693 25.0478C64.3067 24.3225 64.1253 23.3518 64.1253 22.1358V13.1438H61.3093V10.8718H64.1253L64.4773 6.9678H66.8133V10.8718H71.4853V13.1438H66.8133V22.1358C66.8133 23.1385 67.016 23.8211 67.4213 24.1838C67.8267 24.5251 68.5413 24.6958 69.5653 24.6958H71.2933V26.9998H68.7973ZM80.4751 27.3838C78.9818 27.3838 77.6378 27.0425 76.4431 26.3598C75.2484 25.6558 74.3098 24.6745 73.6271 23.4158C72.9444 22.1358 72.6031 20.6531 72.6031 18.9678C72.6031 17.2398 72.9444 15.7465 73.6271 14.4878C74.3311 13.2078 75.2804 12.2265 76.4751 11.5438C77.6911 10.8398 79.0458 10.4878 80.5391 10.4878C82.0751 10.4878 83.4298 10.8398 84.6031 11.5438C85.7978 12.2265 86.7364 13.2078 87.4191 14.4878C88.1231 15.7465 88.4751 17.2291 88.4751 18.9358C88.4751 20.6425 88.1231 22.1358 87.4191 23.4158C86.7151 24.6745 85.7658 25.6558 84.5711 26.3598C83.3764 27.0425 82.0111 27.3838 80.4751 27.3838ZM80.5071 25.0798C81.4244 25.0798 82.2778 24.8558 83.0671 24.4078C83.8564 23.9385 84.4964 23.2451 84.9871 22.3278C85.4778 21.4105 85.7231 20.2798 85.7231 18.9358C85.7231 17.5705 85.4778 16.4398 84.9871 15.5438C84.5178 14.6265 83.8884 13.9438 83.0991 13.4958C82.3311 13.0265 81.4778 12.7918 80.5391 12.7918C79.6431 12.7918 78.7898 13.0265 77.9791 13.4958C77.1898 13.9438 76.5498 14.6265 76.0591 15.5438C75.5898 16.4398 75.3551 17.5705 75.3551 18.9358C75.3551 20.2798 75.5898 21.4105 76.0591 22.3278C76.5498 23.2451 77.1791 23.9385 77.9471 24.4078C78.7364 24.8558 79.5898 25.0798 80.5071 25.0798ZM90.9639 26.9998V10.8718H93.3959L93.5239 13.6878C94.0359 12.6851 94.7612 11.9065 95.6999 11.3518C96.6599 10.7758 97.7479 10.4878 98.9639 10.4878C100.222 10.4878 101.31 10.7438 102.228 11.2558C103.145 11.7465 103.86 12.5038 104.372 13.5278C104.884 14.5305 105.14 15.8105 105.14 17.3678V26.9998H102.452V17.6558C102.452 16.0345 102.089 14.8185 101.364 14.0078C100.66 13.1971 99.6572 12.7918 98.3559 12.7918C97.4599 12.7918 96.6599 13.0158 95.9559 13.4638C95.2519 13.8905 94.6865 14.5198 94.2599 15.3518C93.8545 16.1625 93.6519 17.1758 93.6519 18.3918V26.9998H90.9639ZM108.315 26.9998V10.8718H111.003V26.9998H108.315ZM109.659 7.4478C109.125 7.4478 108.677 7.27713 108.315 6.9358C107.973 6.57313 107.803 6.12513 107.803 5.5918C107.803 5.05847 107.973 4.6318 108.315 4.3118C108.677 3.97047 109.125 3.7998 109.659 3.7998C110.171 3.7998 110.608 3.97047 110.971 4.3118C111.333 4.6318 111.515 5.05847 111.515 5.5918C111.515 6.12513 111.333 6.57313 110.971 6.9358C110.608 7.27713 110.171 7.4478 109.659 7.4478ZM120.546 27.3838C119.202 27.3838 118.029 27.1598 117.026 26.7118C116.045 26.2638 115.256 25.6451 114.658 24.8558C114.082 24.0451 113.73 23.0958 113.602 22.0078H116.354C116.461 22.5625 116.685 23.0745 117.026 23.5438C117.368 24.0131 117.826 24.3971 118.402 24.6958C119 24.9731 119.725 25.1118 120.578 25.1118C121.325 25.1118 121.944 25.0051 122.434 24.7918C122.925 24.5571 123.288 24.2478 123.522 23.8638C123.778 23.4798 123.906 23.0638 123.906 22.6158C123.906 21.9545 123.746 21.4531 123.426 21.1118C123.128 20.7705 122.68 20.5038 122.082 20.3118C121.485 20.0985 120.76 19.9171 119.906 19.7678C119.202 19.6398 118.509 19.4691 117.826 19.2558C117.144 19.0425 116.536 18.7651 116.002 18.4238C115.469 18.0611 115.042 17.6238 114.722 17.1118C114.424 16.5998 114.274 15.9705 114.274 15.2238C114.274 14.3065 114.509 13.4958 114.978 12.7918C115.448 12.0665 116.12 11.5011 116.994 11.0958C117.89 10.6905 118.925 10.4878 120.098 10.4878C121.826 10.4878 123.224 10.9038 124.29 11.7358C125.357 12.5678 125.986 13.7731 126.178 15.3518H123.522C123.416 14.5411 123.064 13.9118 122.466 13.4638C121.89 12.9945 121.09 12.7598 120.066 12.7598C119.064 12.7598 118.296 12.9625 117.762 13.3678C117.25 13.7731 116.994 14.3065 116.994 14.9678C116.994 15.3945 117.133 15.7785 117.41 16.1198C117.709 16.4398 118.136 16.7171 118.69 16.9518C119.266 17.1865 119.97 17.3785 120.802 17.5278C121.869 17.7198 122.84 17.9758 123.714 18.2958C124.589 18.6158 125.293 19.0958 125.826 19.7358C126.381 20.3545 126.658 21.2398 126.658 22.3918C126.658 23.3945 126.402 24.2691 125.89 25.0158C125.4 25.7625 124.696 26.3491 123.778 26.7758C122.861 27.1811 121.784 27.3838 120.546 27.3838ZM129.249 26.9998V3.9598H131.937V13.5918C132.47 12.6318 133.217 11.8745 134.177 11.3198C135.158 10.7651 136.225 10.4878 137.377 10.4878C138.614 10.4878 139.691 10.7438 140.609 11.2558C141.526 11.7465 142.23 12.5038 142.721 13.5278C143.211 14.5518 143.457 15.8425 143.457 17.3998V26.9998H140.801V17.6878C140.801 16.0665 140.459 14.8505 139.777 14.0398C139.094 13.2078 138.102 12.7918 136.801 12.7918C135.883 12.7918 135.051 13.0158 134.305 13.4638C133.579 13.9118 133.003 14.5518 132.577 15.3838C132.15 16.2158 131.937 17.2398 131.937 18.4558V26.9998H129.249ZM153.447 27.3838C151.932 27.3838 150.588 27.0318 149.415 26.3278C148.263 25.6238 147.356 24.6425 146.695 23.3838C146.034 22.1038 145.703 20.6211 145.703 18.9358C145.703 17.2291 146.023 15.7465 146.663 14.4878C147.324 13.2291 148.242 12.2478 149.415 11.5438C150.61 10.8398 151.975 10.4878 153.511 10.4878C155.09 10.4878 156.423 10.8398 157.511 11.5438C158.62 12.2478 159.463 13.1758 160.039 14.3278C160.636 15.4585 160.935 16.7065 160.935 18.0718C160.935 18.2851 160.935 18.5091 160.935 18.7438C160.935 18.9785 160.924 19.2451 160.903 19.5438H147.719V17.4638H158.311C158.247 15.9918 157.756 14.8398 156.839 14.0078C155.943 13.1758 154.812 12.7598 153.447 12.7598C152.53 12.7598 151.676 12.9731 150.887 13.3998C150.119 13.8051 149.5 14.4131 149.031 15.2238C148.562 16.0131 148.327 17.0051 148.327 18.1998V19.0958C148.327 20.4185 148.562 21.5278 149.031 22.4238C149.522 23.3198 150.151 23.9918 150.919 24.4398C151.708 24.8878 152.551 25.1118 153.447 25.1118C154.578 25.1118 155.506 24.8665 156.231 24.3758C156.978 23.8638 157.511 23.1811 157.831 22.3278H160.487C160.231 23.2878 159.783 24.1518 159.143 24.9198C158.503 25.6878 157.703 26.2958 156.743 26.7438C155.804 27.1705 154.706 27.3838 153.447 27.3838ZM163.282 26.9998V10.8718H165.714L165.842 13.6878C166.354 12.6851 167.08 11.9065 168.018 11.3518C168.978 10.7758 170.066 10.4878 171.282 10.4878C172.541 10.4878 173.629 10.7438 174.546 11.2558C175.464 11.7465 176.178 12.5038 176.69 13.5278C177.202 14.5305 177.458 15.8105 177.458 17.3678V26.9998H174.77V17.6558C174.77 16.0345 174.408 14.8185 173.682 14.0078C172.978 13.1971 171.976 12.7918 170.674 12.7918C169.778 12.7918 168.978 13.0158 168.274 13.4638C167.57 13.8905 167.005 14.5198 166.578 15.3518C166.173 16.1625 165.97 17.1758 165.97 18.3918V26.9998H163.282Z" fill="#292929"/>
</svg>
